<svg class="img-fluid" id="outputsvg" xmlns="http://www.w3.org/2000/svg" style="transform: matrix(1, 0, 0, 1, 0, 0); transform-origin: 50% 50%; cursor: move; max-height: none; transition: transform 200ms ease-in-out;" width="2738" height="922" viewBox="0 0 27380 9220"><g id="l73w51ZrmPEYNYW2V8s7Yf6" fill="rgb(219,165,10)" style="transform: none;"><g><path id="pKbkvTMDr" d="M2048 8293 c-36 -9 -20 -33 22 -33 33 0 40 3 40 20 0 20 -20 24 -62 13z"></path><path id="p1GQSht6qa" d="M24960 8280 c0 -16 7 -20 35 -20 40 0 49 24 13 34 -38 10 -48 7 -48 -14z"></path><path id="pGwJWSbva" d="M1848 8283 c-33 -8 -20 -33 17 -33 28 0 35 4 35 20 0 20 -14 23 -52 13z"></path><path id="pG8Rnmg7V" d="M25310 8255 c0 -20 -5 -25 -25 -25 -18 0 -25 -5 -25 -20 0 -23 2 -24 70 -9 46 10 50 13 50 40 0 16 -6 29 -12 30 -7 0 -23 2 -35 5 -19 3 -23 -1 -23 -21z"></path><path id="ps5VfVZti" d="M25408 8272 c-34 -7 -20 -32 17 -32 23 0 35 5 35 14 0 15 -25 24 -52 18z"></path><path id="pIf8NIReK" d="M25470 8245 c0 -28 12 -32 29 -11 10 12 8 17 -8 26 -19 9 -21 8 -21 -15z"></path><path id="p1D5a4bLzP" d="M1660 8247 c0 -16 34 -33 84 -42 31 -6 36 -5 36 12 0 15 -11 22 -51 31 -64 15 -69 15 -69 -1z"></path><path id="pl77cPyNG" d="M1860 8206 c0 -13 28 -26 58 -26 6 0 12 9 12 20 0 16 -7 20 -35 20 -23 0 -35 -5 -35 -14z"></path><path id="pCrZtDS9a" d="M1980 8195 c0 -8 6 -15 13 -16 6 0 22 -2 35 -5 17 -3 22 1 22 16 0 16 -7 20 -35 20 -24 0 -35 -5 -35 -15z"></path><path id="pknupxs59" d="M25020 8190 c0 -21 10 -24 48 -14 36 10 27 34 -13 34 -28 0 -35 -4 -35 -20z"></path><path id="pkcRhNxXt" d="M24880 8180 c0 -20 22 -26 54 -14 30 12 18 34 -19 34 -28 0 -35 -4 -35 -20z"></path><path id="pgsKfI8h1" d="M2360 8176 c0 -13 28 -26 58 -26 6 0 12 9 12 20 0 16 -7 20 -35 20 -23 0 -35 -5 -35 -14z"></path><path id="pRYuNlLS3" d="M24360 8160 c0 -21 10 -24 48 -14 36 10 27 34 -13 34 -28 0 -35 -4 -35 -20z"></path><path id="pzTWmAKPX" d="M2760 8156 c0 -13 28 -26 58 -26 6 0 12 9 12 20 0 16 -7 20 -35 20 -23 0 -35 -5 -35 -14z"></path><path id="pD4a5sHQI" d="M24130 8150 c0 -21 10 -24 48 -14 36 10 27 34 -13 34 -28 0 -35 -4 -35 -20z"></path><path id="pmGQkWF04" d="M2970 8146 c0 -13 28 -26 58 -26 6 0 12 9 12 20 0 16 -7 20 -35 20 -23 0 -35 -5 -35 -14z"></path><path id="pFf9ISbpO" d="M23870 8140 c0 -21 16 -25 58 -14 39 11 27 34 -18 34 -33 0 -40 -3 -40 -20z"></path><path id="p11SkRyW5u" d="M3120 8136 c0 -13 28 -26 58 -26 6 0 12 9 12 20 0 16 -7 20 -35 20 -23 0 -35 -5 -35 -14z"></path><path id="plv3TQhJb" d="M23750 8130 c0 -21 10 -24 48 -14 36 10 27 34 -13 34 -28 0 -35 -4 -35 -20z"></path><path id="p119a3ZlGj" d="M23510 8120 c0 -21 10 -24 48 -14 36 10 27 34 -13 34 -28 0 -35 -4 -35 -20z"></path><path id="pbr2m17nB" d="M3380 8115 c0 -8 6 -15 13 -16 6 0 22 -2 35 -5 17 -3 22 1 22 16 0 16 -7 20 -35 20 -24 0 -35 -5 -35 -15z"></path><path id="p2vUGpZqc" d="M23420 8110 c0 -21 10 -24 48 -14 36 10 27 34 -13 34 -28 0 -35 -4 -35 -20z"></path><path id="phLoVORgk" d="M3590 8106 c0 -13 28 -26 58 -26 6 0 12 9 12 20 0 16 -7 20 -35 20 -23 0 -35 -5 -35 -14z"></path><path id="p15Z45IgbG" d="M23210 8100 c0 -21 10 -24 48 -14 36 10 27 34 -13 34 -28 0 -35 -4 -35 -20z"></path><path id="pzxPKjNia" d="M3880 8086 c0 -13 28 -26 58 -26 6 0 12 9 12 20 0 16 -7 20 -35 20 -23 0 -35 -5 -35 -14z"></path><path id="pHLVrGf3E" d="M22550 8070 c0 -21 10 -24 48 -14 36 10 27 34 -13 34 -28 0 -35 -4 -35 -20z"></path><path id="p18tozDzio" d="M4440 8066 c0 -7 10 -16 23 -20 41 -11 57 -7 57 14 0 17 -7 20 -40 20 -27 0 -40 -4 -40 -14z"></path><path id="pTTL40sMW" d="M22190 8060 c0 -21 16 -25 58 -14 39 11 27 34 -18 34 -33 0 -40 -3 -40 -20z"></path><path id="p13Zwflbs8" d="M4750 8056 c0 -13 28 -26 58 -26 6 0 12 9 12 20 0 16 -7 20 -35 20 -23 0 -35 -5 -35 -14z"></path><path id="p465NV5id" d="M21830 8050 c0 -21 10 -24 48 -14 36 10 27 34 -13 34 -28 0 -35 -4 -35 -20z"></path><path id="p110TrbSzK" d="M21960 8056 c0 -17 42 -28 75 -20 46 11 30 34 -25 34 -36 0 -50 -4 -50 -14z"></path><path id="pEhN9J4Ye" d="M4880 8046 c0 -7 10 -16 23 -20 41 -11 57 -7 57 14 0 17 -7 20 -40 20 -27 0 -40 -4 -40 -14z"></path><path id="pAWbwdjnj" d="M5140 8036 c0 -13 28 -26 58 -26 6 0 12 9 12 20 0 16 -7 20 -35 20 -23 0 -35 -5 -35 -14z"></path><path id="paNBl1ENt" d="M5230 8026 c0 -13 28 -26 58 -26 6 0 12 9 12 20 0 16 -7 20 -35 20 -23 0 -35 -5 -35 -14z"></path><path id="ppFvb9zUX" d="M5690 7986 c0 -8 19 -18 46 -25 31 -8 57 -24 80 -49 l34 -37 0 38 c0 33 -3 37 -25 37 -18 0 -25 5 -25 19 0 13 -10 20 -31 25 -51 10 -79 7 -79 -8z"></path><path id="p8YxbOKUm" d="M21490 7959 l0 -30 30 21 c44 31 45 40 6 40 -33 0 -36 -2 -36 -31z"></path><path id="p14KGUhoS" d="M5900 7810 c31 -44 40 -45 40 -6 0 33 -2 36 -31 36 l-30 0 21 -30z"></path><path id="pE1h0mxQC" d="M18396 7788 c-56 -39 -184 -109 -315 -174 -52 -25 -109 -56 -125 -68 -17 -13 -80 -49 -141 -81 -188 -99 -220 -117 -235 -130 -8 -7 -49 -29 -90 -48 -129 -58 -147 -98 -137 -300 3 -62 15 -341 26 -622 23 -550 37 -848 51 -1045 5 -69 14 -200 19 -291 6 -91 13 -173 16 -181 4 -9 2 -33 -4 -55 -14 -51 -46 -68 -151 -83 -105 -15 -313 -52 -440 -79 -52 -11 -142 -25 -200 -31 -58 -6 -125 -16 -150 -22 -129 -32 -131 -38 -150 -493 -10 -244 -23 -421 -41 -575 -26 -213 -43 -413 -64 -730 -8 -124 -17 -268 -20 -320 -6 -80 -4 -100 12 -130 17 -33 22 -35 72 -38 62 -4 76 6 128 88 19 30 54 73 77 95 22 22 67 72 98 110 109 134 240 289 413 490 55 64 114 133 130 154 17 20 64 77 105 125 41 49 91 108 110 132 19 23 89 105 155 182 66 76 149 174 185 217 36 43 103 121 150 174 47 53 111 130 143 171 32 41 84 105 115 141 31 36 89 102 127 146 124 142 159 184 200 239 22 29 76 93 120 142 73 82 119 135 237 279 24 29 77 91 118 139 95 110 141 167 182 224 18 24 52 65 75 90 23 25 65 74 95 109 29 35 85 101 123 146 155 183 223 264 280 335 33 41 89 109 125 150 36 41 88 102 115 135 27 33 52 62 56 65 3 3 19 23 35 45 16 22 83 102 149 178 215 247 245 292 245 372 0 45 0 45 -35 45 -59 0 -201 -47 -298 -99 -50 -27 -109 -54 -130 -61 -20 -6 -63 -27 -94 -46 -31 -18 -87 -43 -125 -55 -39 -12 -95 -38 -126 -57 -32 -19 -81 -43 -110 -53 -30 -10 -93 -38 -140 -62 -48 -24 -105 -50 -127 -57 -22 -7 -68 -28 -103 -48 -35 -19 -97 -47 -139 -63 -41 -15 -92 -39 -112 -53 -20 -14 -70 -37 -111 -51 -41 -14 -98 -41 -127 -61 -43 -30 -55 -34 -72 -24 -11 6 -24 22 -27 37 -4 15 -4 119 0 232 3 113 11 341 16 506 5 165 12 364 15 442 6 134 5 143 -14 162 -34 34 -106 29 -165 -11z"></path><path id="pA5xokOdM" d="M9784 7789 c-13 -15 -19 -39 -21 -87 -19 -449 -32 -556 -88 -732 -18 -58 -40 -142 -49 -186 -9 -45 -33 -119 -55 -165 -21 -46 -46 -109 -56 -139 -9 -30 -34 -87 -55 -125 -21 -39 -50 -99 -64 -134 -14 -35 -36 -78 -49 -95 -14 -17 -41 -65 -62 -106 -21 -41 -51 -90 -66 -108 -16 -18 -40 -54 -54 -80 -14 -26 -63 -92 -110 -147 -47 -55 -93 -113 -103 -130 -9 -16 -34 -47 -55 -69 -36 -38 -38 -43 -35 -96 l3 -55 54 -3 c47 -3 60 1 95 26 23 16 59 39 81 50 41 21 145 96 245 175 30 24 80 57 110 72 30 15 75 44 100 65 25 20 59 44 77 53 17 9 52 34 76 54 25 21 65 50 89 66 60 38 207 137 254 170 50 36 121 84 209 143 39 26 85 60 103 75 18 16 54 40 80 53 26 13 58 36 72 51 14 15 50 40 80 55 30 16 88 52 127 82 40 29 103 74 140 100 38 27 91 64 118 83 28 19 87 59 131 89 45 30 85 59 88 65 4 6 26 21 49 32 23 12 76 47 118 78 169 124 210 152 243 166 20 8 51 30 70 49 18 19 53 44 77 57 24 12 64 38 88 58 24 20 72 54 107 76 140 88 352 241 407 294 45 44 57 62 57 86 0 17 -5 36 -12 43 -9 9 -312 12 -1303 12 l-1292 0 -19 -21z"></path><path id="prXZGzBpj" d="M21320 7754 c0 -39 9 -38 40 6 l21 30 -30 0 c-29 0 -31 -3 -31 -36z"></path><path id="ptesDErxd" d="M5970 7720 c31 -44 40 -45 40 -6 0 33 -2 36 -31 36 l-30 0 21 -30z"></path><path id="pAQKsXy2l" d="M21210 7624 c0 -39 9 -38 40 6 l21 30 -30 0 c-29 0 -31 -3 -31 -36z"></path><path id="ptlIGzrot" d="M6071 7603 c22 -28 58 -63 64 -63 3 0 5 12 5 26 0 33 -22 54 -56 54 -24 0 -25 -2 -13 -17z"></path><path id="p1DBKH4cT1" d="M16025 7449 c-329 -12 -774 -25 -1275 -37 -239 -6 -458 -14 -487 -17 -69 -8 -107 -49 -117 -126 -14 -106 -47 -248 -80 -350 -19 -57 -39 -140 -46 -184 -15 -108 -26 -160 -65 -290 -18 -60 -45 -173 -60 -250 -14 -77 -39 -183 -55 -235 -16 -52 -45 -172 -65 -265 -19 -94 -45 -204 -59 -246 -13 -41 -34 -126 -46 -189 -11 -63 -40 -187 -65 -275 -24 -88 -49 -187 -55 -220 -15 -80 -36 -145 -75 -235 -17 -41 -45 -108 -60 -149 -16 -40 -35 -75 -42 -78 -25 -10 -13 -32 30 -58 49 -28 85 -31 125 -11 15 7 47 16 71 20 24 4 56 13 71 21 15 8 54 18 86 24 33 5 68 13 78 17 17 6 18 4 12 -19 -3 -14 -18 -39 -32 -54 -14 -15 -41 -57 -59 -93 -18 -36 -50 -80 -70 -98 -36 -31 -37 -35 -31 -79 3 -25 11 -52 16 -58 6 -7 24 -50 41 -96 17 -46 64 -151 105 -234 68 -139 87 -195 65 -195 -5 0 -16 11 -25 25 -9 14 -47 45 -84 70 -37 25 -76 59 -85 75 -19 32 -64 60 -95 60 -12 0 -30 18 -50 50 -21 34 -40 51 -59 56 -31 8 -84 41 -96 61 -8 14 -47 17 -84 7 -43 -12 -23 -99 47 -204 21 -30 50 -80 65 -110 15 -30 51 -96 81 -145 29 -50 60 -111 69 -135 9 -24 29 -65 45 -90 16 -25 41 -76 55 -113 14 -38 36 -90 50 -117 30 -60 31 -74 5 -123 -12 -21 -34 -73 -51 -115 -17 -42 -40 -93 -53 -112 -12 -19 -34 -69 -50 -110 -15 -41 -50 -120 -77 -175 -27 -55 -49 -104 -49 -109 0 -5 -22 -53 -50 -107 -27 -54 -50 -105 -50 -113 0 -8 -22 -57 -49 -108 -27 -51 -61 -129 -76 -173 -14 -44 -37 -96 -51 -116 -14 -20 -43 -80 -65 -133 -22 -53 -52 -115 -67 -138 -22 -33 -27 -55 -30 -115 -3 -48 0 -78 8 -88 15 -19 99 -20 123 -2 32 24 119 103 215 196 53 51 115 107 137 123 22 16 109 95 194 176 85 81 164 154 176 162 13 8 100 87 196 175 182 169 228 210 434 395 224 201 304 282 316 319 14 42 7 126 -21 245 -11 49 -30 166 -40 260 -11 94 -28 207 -37 251 -28 137 -24 212 21 350 21 66 55 152 76 190 21 39 45 97 55 130 9 33 26 76 37 95 48 81 57 101 82 168 14 40 43 103 65 141 21 38 42 80 46 93 4 13 24 55 45 93 20 39 50 102 64 142 15 39 41 91 58 113 16 23 41 72 54 109 14 36 42 95 63 131 21 36 44 83 51 105 7 22 28 65 47 96 18 31 46 89 62 130 15 41 45 101 65 134 20 33 44 85 52 115 9 30 33 82 54 115 21 33 48 85 59 115 12 31 35 77 51 104 17 26 41 74 54 106 13 32 38 78 55 103 16 24 44 79 60 121 17 41 44 94 60 117 17 22 39 69 51 103 11 35 37 90 56 122 20 33 43 77 50 99 8 21 31 69 51 105 21 36 51 97 68 135 17 39 44 91 61 115 52 79 67 121 72 207 4 73 3 82 -16 92 -30 16 -155 19 -407 10z m-1505 -4877 c41 -20 51 -54 24 -84 -14 -14 -26 -18 -48 -14 -40 8 -54 22 -65 63 -19 67 5 76 89 35z m-700 -77 c0 -54 -15 -80 -31 -54 -20 32 -2 128 22 114 5 -4 9 -30 9 -60z m605 -65 c10 -16 -14 -50 -35 -50 -45 0 -60 29 -26 52 16 11 54 10 61 -2z m-708 -68 c6 -4 15 -21 19 -37 10 -46 36 -85 55 -85 15 0 51 15 99 42 65 36 114 38 191 7 14 -6 48 -9 75 -7 44 3 49 5 49 27 1 30 39 61 76 61 24 0 29 -5 35 -35 8 -43 -11 -69 -62 -85 -28 -9 -34 -17 -34 -39 0 -30 -27 -59 -78 -85 -18 -9 -37 -28 -42 -42 -5 -13 -25 -34 -45 -45 -20 -12 -46 -41 -61 -69 -16 -29 -37 -53 -53 -60 -15 -6 -35 -24 -44 -39 -9 -16 -33 -42 -53 -57 -19 -16 -89 -81 -154 -144 -65 -63 -123 -119 -130 -125 -12 -11 -30 -29 -219 -215 -109 -108 -150 -144 -223 -197 -57 -42 -64 -3 -17 90 68 133 79 158 79 172 0 8 14 30 31 49 18 21 44 74 64 133 25 69 43 106 66 127 31 29 60 85 78 154 6 21 24 51 41 67 19 18 39 56 56 107 22 68 31 82 64 103 41 26 54 53 65 140 10 76 37 109 72 87z"></path><path id="pNTSJ95a3" d="M6295 7316 c9 -14 27 -32 41 -41 23 -15 24 -15 24 13 0 15 -5 33 -12 40 -7 7 -25 12 -40 12 -28 0 -28 -1 -13 -24z"></path><path id="pHakINkdX" d="M20960 7304 c0 -39 9 -38 40 6 l21 30 -30 0 c-29 0 -31 -3 -31 -36z"></path><path id="py7pkxT5A" d="M20880 7224 c0 -39 9 -38 40 6 l21 30 -30 0 c-29 0 -31 -3 -31 -36z"></path><path id="pCThyHiy6" d="M6380 7220 c31 -44 40 -45 40 -6 0 33 -2 36 -31 36 l-30 0 21 -30z"></path><path id="pO4ULDQRy" d="M20800 7124 c0 -39 9 -38 40 6 l21 30 -30 0 c-29 0 -31 -3 -31 -36z"></path><path id="pNCLJZu1I" d="M6549 7013 c11 -16 39 -48 60 -73 l40 -45 1 38 c0 35 -2 37 -30 37 -28 0 -30 3 -30 35 0 32 -2 35 -31 35 l-30 0 20 -27z"></path><path id="poXzpicE0" d="M20620 6916 c0 -8 -5 -16 -11 -18 -6 -2 -9 -19 -7 -38 l3 -35 33 44 c39 53 40 61 7 61 -15 0 -25 -6 -25 -14z"></path><path id="p7Fie1GIE" d="M6699 6833 c11 -16 33 -44 50 -63 l30 -35 1 38 c0 30 -3 37 -20 37 -15 0 -20 7 -20 25 0 21 -5 25 -31 25 l-30 0 20 -27z"></path><path id="pUIRj2nAG" d="M20472 6748 c-7 -7 -12 -20 -12 -29 0 -9 -9 -19 -20 -22 -16 -4 -20 -13 -20 -44 l1 -38 40 45 c22 25 49 57 60 73 l20 27 -28 0 c-16 0 -34 -5 -41 -12z"></path><path id="p6xKmrNac" d="M6810 6700 c31 -44 40 -45 40 -6 0 33 -2 36 -31 36 l-30 0 21 -30z"></path><path id="pgkWQfeSV" d="M6930 6564 c0 -12 34 -64 42 -64 4 0 8 16 8 35 0 31 -3 35 -25 35 -14 0 -25 -3 -25 -6z"></path><path id="pLBh4ncSu" d="M7120 6320 c31 -44 40 -45 40 -6 0 33 -2 36 -31 36 l-30 0 21 -30z"></path><path id="p17MUl5MzT" d="M7239 6183 c11 -16 33 -44 50 -63 l30 -35 1 38 c0 30 -3 37 -20 37 -15 0 -20 7 -20 25 0 21 -5 25 -31 25 l-30 0 20 -27z"></path><path id="pTdi22nAn" d="M20020 6170 c0 -25 -4 -30 -25 -30 -22 0 -25 -4 -25 -37 l1 -38 35 40 c19 22 44 52 55 68 l20 27 -30 0 c-28 0 -31 -3 -31 -30z"></path><path id="p1AzLCiujS" d="M19860 5974 c0 -39 9 -38 40 6 l21 30 -30 0 c-29 0 -31 -3 -31 -36z"></path><path id="pd7sKbUDu" d="M19560 5604 c0 -39 9 -38 40 6 l21 30 -30 0 c-29 0 -31 -3 -31 -36z"></path><path id="pSmI3yV0V" d="M19030 4944 c0 -39 9 -38 40 6 l21 30 -30 0 c-29 0 -31 -3 -31 -36z"></path><path id="pbWDieD4Z" d="M18950 4854 c0 -39 9 -38 40 6 l21 30 -30 0 c-29 0 -31 -3 -31 -36z"></path><path id="pnuOTQSSp" d="M18880 4790 c0 -11 -7 -20 -15 -20 -9 0 -15 -9 -15 -24 0 -18 -6 -25 -22 -28 -19 -2 -23 -10 -26 -43 l-2 -40 40 45 c22 25 54 64 71 88 l30 42 -30 0 c-24 0 -31 -4 -31 -20z"></path><path id="p1G6iHhOfY" d="M18620 4455 c0 -44 9 -44 38 0 l22 35 -30 0 c-28 0 -30 -3 -30 -35z"></path><path id="pGgvLm6qs" d="M13190 4413 c0 -5 16 -18 35 -31 l35 -22 0 30 c0 28 -3 30 -35 30 -19 0 -35 -3 -35 -7z"></path><path id="pqF3sGSQJ" d="M8800 4335 c19 -19 35 -35 37 -35 2 0 3 16 3 35 0 34 -1 35 -37 35 l-37 0 34 -35z"></path><path id="p1DXjxla3v" d="M13120 4335 c0 -28 4 -35 20 -35 21 0 24 10 14 48 -10 36 -34 27 -34 -13z"></path><path id="p12ANdOZkH" d="M13281 4331 c7 -10 20 -23 30 -30 17 -10 19 -8 19 19 0 27 -3 30 -30 30 -27 0 -29 -2 -19 -19z"></path><path id="ppiBeMA4Y" d="M18467 4293 c-4 -3 -7 -19 -7 -35 0 -28 1 -28 21 -14 11 8 27 24 35 35 14 20 14 21 -14 21 -16 0 -32 -3 -35 -7z"></path><path id="p1A6wr6yVv" d="M9010 4090 c31 -44 40 -45 40 -6 0 33 -2 36 -31 36 l-30 0 21 -30z"></path><path id="pUo4R7JGW" d="M13170 4005 c0 -43 14 -45 35 -5 20 38 19 40 -10 40 -22 0 -25 -4 -25 -35z"></path><path id="p18msTjQom" d="M9118 3962 c12 -16 28 -35 37 -42 15 -12 16 -10 13 26 -3 36 -5 39 -37 42 l-33 3 20 -29z"></path><path id="p16fTJqjQQ" d="M13128 3749 c-30 -17 -20 -29 22 -29 33 0 40 3 40 20 0 22 -32 27 -62 9z"></path><path id="p6qdmCdde" d="M17920 3593 l1 -38 24 28 c32 36 31 47 0 47 -22 0 -25 -4 -25 -37z"></path><path id="pnXq4QRiK" d="M9520 3510 c31 -44 40 -45 40 -6 0 33 -2 36 -31 36 l-30 0 21 -30z"></path><path id="p9FuMAJJg" d="M17810 3464 c0 -39 9 -38 40 6 l21 30 -30 0 c-29 0 -31 -3 -31 -36z"></path><path id="pv3yIa7jF" d="M9610 3410 c31 -44 40 -45 40 -6 0 33 -2 36 -31 36 l-30 0 21 -30z"></path><path id="pqenj6LXC" d="M17670 3310 c0 -41 8 -39 49 13 12 15 11 17 -18 17 -28 0 -31 -3 -31 -30z"></path><path id="p1A7fQakvg" d="M17580 3205 c0 -18 -5 -25 -20 -25 -17 0 -20 -7 -20 -37 l1 -38 30 35 c17 19 39 47 50 63 l20 27 -30 0 c-26 0 -31 -4 -31 -25z"></path><path id="pywmTAVvb" d="M9849 3143 c11 -16 41 -50 66 -78 l45 -50 -2 40 c-3 37 -5 40 -35 43 -30 3 -33 6 -33 38 0 31 -2 34 -31 34 l-30 0 20 -27z"></path><path id="pcoh7ISt9" d="M17450 3024 c0 -39 9 -38 40 6 l21 30 -30 0 c-29 0 -31 -3 -31 -36z"></path><path id="p1GmP7xPsm" d="M17350 2914 c0 -39 9 -38 40 6 l21 30 -30 0 c-29 0 -31 -3 -31 -36z"></path><path id="pnFvwe03x" d="M10290 2645 c19 -19 35 -35 37 -35 2 0 3 16 3 35 0 34 -1 35 -37 35 l-37 0 34 -35z"></path><path id="p1CaXPeZsq" d="M17100 2614 c0 -39 9 -38 40 6 l21 30 -30 0 c-29 0 -31 -3 -31 -36z"></path><path id="p1HnenaAua" d="M16960 2470 c0 -11 -7 -20 -15 -20 -11 0 -15 -11 -15 -36 0 -43 9 -38 59 31 l32 45 -30 0 c-24 0 -31 -4 -31 -20z"></path><path id="pvCfGgt85" d="M16860 2334 c0 -39 9 -38 40 6 l21 30 -30 0 c-29 0 -31 -3 -31 -36z"></path><path id="pJNeDaMdy" d="M10596 2315 c9 -14 26 -30 36 -36 18 -9 19 -7 16 23 -3 29 -7 33 -36 36 l-33 3 17 -26z"></path><path id="pinjsTcVh" d="M15023 2243 c-29 -4 -33 -8 -33 -33 l0 -30 33 20 c23 14 41 18 65 14 28 -5 32 -4 32 15 0 22 -14 24 -97 14z"></path><path id="pVcYTQL0X" d="M16760 2215 c0 -32 -2 -35 -30 -35 -28 0 -30 -2 -30 -37 l1 -38 40 45 c21 25 49 57 60 73 l20 27 -30 0 c-29 0 -31 -3 -31 -35z"></path><path id="ptlog7Vmv" d="M16630 2064 c0 -39 9 -38 40 6 l21 30 -30 0 c-29 0 -31 -3 -31 -36z"></path><path id="pvLS20dPA" d="M16490 1904 c0 -39 9 -38 40 6 l21 30 -30 0 c-29 0 -31 -3 -31 -36z"></path><path id="pIMRCF5yB" d="M11000 1890 c31 -44 40 -45 40 -6 0 33 -2 36 -31 36 l-30 0 21 -30z"></path><path id="p1Be3NR3GC" d="M14660 1845 c0 -33 -2 -35 -35 -35 -32 0 -35 -2 -35 -31 l0 -30 28 19 c26 19 64 58 91 95 12 15 10 17 -18 17 -29 0 -31 -2 -31 -35z"></path><path id="p2Hos0aSr" d="M16350 1750 c0 -27 2 -29 19 -19 10 7 23 20 30 30 10 17 8 19 -19 19 -27 0 -30 -3 -30 -30z"></path><path id="pm00t7lcj" d="M16190 1579 l0 -30 30 21 c44 31 45 40 6 40 -33 0 -36 -2 -36 -31z"></path><path id="pAH2i7xiB" d="M14350 1524 c0 -39 9 -38 40 6 l21 30 -30 0 c-29 0 -31 -3 -31 -36z"></path><path id="ps2etCeQI" d="M15920 1509 c0 -29 134 -43 179 -20 39 22 21 28 -79 28 -55 0 -100 -4 -100 -8z"></path><path id="pkXYVcgKu" d="M14280 1449 l0 -30 30 21 c44 31 45 40 6 40 -33 0 -36 -2 -36 -31z"></path><path id="pWUCKJwiP" d="M14110 1299 l0 -30 30 21 c44 31 45 40 6 40 -33 0 -36 -2 -36 -31z"></path><path id="pwwXqTJwf" d="M11650 1240 c31 -44 40 -45 40 -6 0 33 -2 36 -31 36 l-30 0 21 -30z"></path><path id="pXiGevmK7" d="M13920 1120 c0 -14 -7 -20 -24 -20 -31 0 -48 -22 -44 -58 l3 -30 70 64 69 64 -37 0 c-30 0 -37 -4 -37 -20z"></path><path id="p4QZWjWy6" d="M11865 1030 c3 -5 19 -19 35 -30 l30 -21 0 30 c0 29 -3 31 -36 31 -20 0 -33 -4 -29 -10z"></path><path id="p11LD1fumI" d="M12021 901 c7 -10 20 -23 30 -30 17 -10 19 -8 19 19 0 27 -3 30 -30 30 -27 0 -29 -2 -19 -19z"></path><path id="p15NQHknnh" d="M13450 709 l0 -30 30 21 c44 31 45 40 6 40 -33 0 -36 -2 -36 -31z"></path><path id="pM2kENduk" d="M12320 653 c0 -5 16 -18 35 -31 l35 -22 0 30 c0 28 -3 30 -35 30 -19 0 -35 -3 -35 -7z"></path><path id="pKFqeDnmA" d="M13300 610 c0 -28 -3 -30 -35 -30 -31 0 -35 -3 -35 -25 0 -14 4 -25 9 -25 5 0 33 20 62 45 29 25 56 45 61 45 4 0 8 5 8 10 0 6 -16 10 -35 10 -32 0 -35 -2 -35 -30z"></path><path id="p1D2YTjPxz" d="M12450 552 c0 -7 17 -18 63 -40 4 -2 7 8 7 22 0 23 -4 26 -35 26 -19 0 -35 -4 -35 -8z"></path><path id="p1FPQpGMjG" d="M12575 474 c38 -34 40 -34 43 -14 6 38 -5 50 -45 50 l-38 -1 40 -35z"></path><path id="pVJ8cc8Om" d="M13050 445 c0 -31 11 -32 47 0 l28 24 -37 1 c-34 0 -38 -3 -38 -25z"></path><path id="pKRZxkQ1" d="M12920 400 c0 -21 10 -24 48 -14 36 10 27 34 -13 34 -28 0 -35 -4 -35 -20z"></path><path id="p1ClJk3xuh" d="M12760 396 c0 -13 28 -26 58 -26 6 0 12 9 12 20 0 16 -7 20 -35 20 -23 0 -35 -5 -35 -14z"></path></g></g><g id="l4gizkngbuLh39wsiNa7Fqi" fill="rgb(21,19,16)" style="transform: none;"><g><path id="pIKJsV60B" d="M1925 8288 c-162 -8 -261 -25 -259 -43 2 -17 51 -35 121 -45 131 -17 451 -40 798 -55 384 -17 614 -30 805 -45 69 -5 188 -14 265 -20 77 -6 385 -20 685 -31 300 -11 622 -24 715 -30 94 -5 256 -13 360 -18 191 -9 333 -31 370 -57 11 -8 34 -32 50 -53 58 -76 150 -187 233 -281 46 -52 91 -108 99 -125 9 -16 32 -49 52 -72 20 -22 65 -76 101 -119 36 -42 86 -100 111 -128 26 -28 55 -65 65 -82 18 -28 80 -106 179 -223 22 -26 69 -83 105 -126 36 -43 89 -105 118 -138 28 -33 52 -64 52 -69 0 -4 26 -37 57 -72 67 -74 209 -243 271 -325 24 -31 58 -70 74 -88 17 -18 54 -62 82 -97 66 -84 166 -204 236 -282 30 -33 83 -96 118 -140 34 -43 88 -109 120 -145 177 -206 271 -317 301 -358 19 -25 66 -80 105 -122 92 -98 165 -183 196 -230 14 -20 68 -84 120 -142 142 -157 196 -219 221 -252 13 -16 71 -84 129 -150 196 -223 285 -326 318 -367 18 -23 81 -93 138 -157 58 -64 127 -141 154 -171 27 -30 83 -92 125 -138 96 -106 336 -377 395 -446 48 -57 209 -232 300 -326 30 -32 80 -84 110 -117 30 -33 123 -132 205 -219 83 -87 184 -195 225 -239 136 -147 495 -508 686 -690 104 -99 202 -193 218 -210 15 -16 50 -46 76 -65 26 -19 103 -86 171 -149 68 -62 150 -132 182 -155 32 -22 81 -60 110 -83 29 -24 77 -56 108 -72 30 -16 74 -45 97 -64 50 -42 144 -76 232 -83 90 -8 194 22 280 80 36 24 84 54 108 65 24 12 60 37 80 55 20 18 62 47 92 66 63 37 166 120 290 231 47 42 103 89 125 105 46 32 100 82 250 229 56 55 142 136 191 179 49 44 109 105 133 135 25 31 106 117 180 192 75 76 165 172 201 215 101 120 252 275 279 285 47 18 78 1 138 -74 79 -101 447 -465 523 -518 34 -24 70 -50 80 -57 9 -7 55 -28 101 -47 149 -61 237 -43 352 72 109 110 538 595 692 783 33 41 81 97 106 124 45 50 101 118 209 252 30 38 96 114 145 169 50 55 104 118 120 140 65 87 184 235 260 321 91 105 180 210 227 271 18 23 60 74 93 113 114 136 146 175 199 245 30 39 68 84 86 100 18 17 46 50 63 75 17 25 49 66 71 92 23 25 64 74 91 108 28 33 71 85 96 113 25 29 56 68 69 87 33 48 128 164 234 284 48 56 95 112 104 126 9 14 30 41 48 60 18 19 52 63 76 97 24 34 95 121 158 195 64 73 138 162 165 198 28 36 106 132 175 215 69 82 137 166 150 185 13 19 46 60 72 90 70 79 249 299 277 340 13 19 44 56 68 81 24 25 58 66 76 91 18 25 77 98 132 163 55 64 115 135 133 158 18 23 58 74 90 114 31 39 86 109 122 154 36 46 81 99 100 118 36 37 120 138 167 204 16 21 48 63 73 92 25 29 72 86 105 126 33 40 81 95 106 123 25 28 60 73 78 99 18 26 58 64 88 85 70 46 63 46 708 66 520 17 848 31 1085 46 388 26 754 44 1190 59 162 6 329 13 370 16 41 3 140 10 220 15 80 5 163 14 185 19 22 6 64 11 93 11 59 0 92 13 92 35 0 23 -39 27 -385 45 -232 11 -22973 10 -23190 -2z m16604 -517 c18 -18 19 -31 15 -128 -7 -171 -24 -695 -31 -969 -6 -248 -6 -251 15 -272 34 -34 87 -29 146 13 26 19 83 46 125 60 42 14 95 39 119 55 24 16 67 36 95 45 29 10 88 36 132 60 44 23 98 48 120 55 22 7 79 33 127 57 47 24 110 52 140 62 29 10 78 34 110 53 31 19 87 45 126 57 38 12 94 37 125 55 31 19 74 40 94 46 21 7 80 34 130 61 72 39 236 99 268 99 12 0 3 -34 -19 -78 -29 -55 -60 -94 -221 -279 -66 -76 -133 -156 -149 -178 -16 -22 -32 -42 -35 -45 -4 -3 -29 -32 -56 -65 -27 -33 -79 -94 -115 -135 -36 -41 -92 -109 -125 -150 -57 -71 -125 -152 -280 -335 -38 -45 -94 -111 -123 -146 -30 -35 -72 -84 -95 -109 -23 -25 -57 -66 -75 -90 -41 -57 -87 -114 -182 -224 -41 -48 -94 -110 -118 -139 -118 -144 -164 -197 -237 -279 -44 -49 -98 -113 -120 -142 -41 -55 -76 -97 -200 -239 -38 -44 -96 -110 -127 -146 -31 -36 -83 -100 -115 -141 -32 -41 -96 -118 -143 -171 -47 -53 -114 -131 -150 -174 -36 -43 -119 -141 -185 -217 -66 -77 -136 -159 -155 -182 -19 -24 -69 -83 -110 -132 -41 -48 -88 -105 -105 -125 -16 -21 -75 -90 -130 -154 -173 -201 -304 -356 -413 -490 -31 -38 -76 -88 -98 -110 -23 -22 -58 -65 -77 -95 -19 -30 -44 -63 -55 -73 -52 -47 -108 16 -97 112 3 29 12 162 20 295 21 328 37 515 64 736 18 154 31 331 41 575 19 455 21 461 150 493 25 6 92 16 150 22 58 6 148 20 200 31 127 27 335 64 440 79 47 6 97 19 113 28 36 22 51 78 42 157 -3 33 -11 123 -16 200 -4 77 -13 203 -19 280 -15 216 -28 491 -45 940 -8 226 -20 494 -26 596 -6 103 -8 208 -5 233 10 64 46 103 136 143 41 19 82 41 90 48 15 13 47 31 235 130 61 32 124 68 141 81 16 12 73 43 125 68 131 65 259 135 315 174 55 37 76 40 103 13z m-6161 -4 c9 -10 -2 -26 -46 -69 -54 -52 -267 -206 -406 -293 -35 -22 -83 -56 -107 -76 -24 -20 -64 -46 -88 -58 -24 -13 -59 -38 -77 -57 -19 -19 -50 -41 -70 -49 -33 -14 -74 -42 -243 -166 -42 -31 -95 -66 -118 -78 -23 -11 -45 -26 -49 -32 -3 -6 -43 -35 -88 -65 -44 -30 -103 -70 -131 -89 -27 -19 -80 -56 -118 -83 -37 -26 -100 -71 -140 -100 -39 -30 -97 -66 -127 -82 -30 -15 -66 -40 -80 -55 -14 -15 -46 -38 -72 -51 -26 -13 -62 -37 -80 -53 -18 -15 -64 -49 -103 -75 -88 -59 -159 -107 -209 -143 -47 -33 -194 -132 -254 -170 -24 -16 -64 -45 -89 -66 -24 -20 -59 -45 -76 -54 -18 -9 -52 -33 -77 -53 -25 -21 -70 -50 -100 -65 -30 -15 -80 -48 -110 -72 -100 -79 -204 -154 -245 -175 -22 -11 -59 -34 -81 -50 -85 -60 -129 -7 -57 68 21 22 46 53 55 69 10 17 56 75 103 130 47 55 96 121 110 147 14 26 38 62 54 80 15 18 45 67 66 108 21 41 48 89 62 106 13 17 35 60 49 95 14 35 43 95 64 134 21 38 46 95 55 125 10 30 35 93 56 139 22 46 46 120 55 165 9 44 31 128 49 186 56 176 69 283 88 732 2 48 8 72 21 87 l19 21 1262 0 c1030 0 1265 -2 1273 -13z m4036 -359 c16 -9 18 -18 13 -62 -6 -57 -27 -109 -71 -176 -17 -24 -44 -76 -61 -115 -17 -38 -47 -99 -68 -135 -20 -36 -43 -84 -51 -105 -7 -22 -30 -66 -50 -99 -19 -32 -45 -87 -56 -122 -12 -34 -34 -81 -51 -103 -16 -23 -43 -76 -60 -117 -16 -42 -44 -97 -60 -121 -17 -25 -42 -71 -55 -103 -13 -32 -37 -80 -54 -106 -16 -27 -39 -73 -51 -104 -11 -30 -38 -82 -59 -115 -21 -33 -45 -85 -54 -115 -8 -30 -32 -82 -52 -115 -20 -33 -50 -93 -65 -134 -16 -41 -44 -99 -62 -130 -19 -31 -40 -74 -47 -96 -7 -22 -30 -69 -51 -105 -21 -36 -49 -95 -63 -131 -13 -37 -38 -86 -54 -109 -17 -22 -43 -74 -58 -113 -14 -40 -44 -103 -64 -142 -21 -38 -41 -80 -45 -93 -4 -13 -25 -55 -46 -93 -22 -38 -51 -101 -65 -141 -25 -67 -34 -87 -82 -168 -11 -19 -28 -62 -37 -95 -9 -33 -33 -89 -52 -124 -20 -35 -53 -118 -75 -185 -49 -148 -57 -233 -34 -361 9 -49 23 -144 32 -210 26 -206 42 -307 64 -410 17 -79 19 -107 11 -135 -11 -38 -86 -114 -316 -320 -206 -185 -252 -226 -434 -395 -96 -88 -183 -167 -196 -175 -12 -8 -91 -81 -176 -162 -85 -81 -172 -160 -194 -176 -22 -16 -84 -72 -137 -123 -205 -199 -241 -225 -273 -199 -25 21 -15 99 18 149 15 22 44 84 66 137 22 53 51 113 65 133 14 20 37 72 51 116 15 44 49 122 76 173 27 51 49 100 49 108 0 8 23 59 50 113 28 54 50 102 50 107 0 5 22 54 49 109 27 55 62 134 77 175 16 41 38 91 50 110 13 19 36 70 53 112 17 42 39 94 51 115 35 67 36 95 0 170 -17 38 -43 97 -56 133 -14 35 -38 85 -54 110 -16 25 -36 66 -45 90 -9 24 -40 85 -69 135 -30 49 -66 115 -81 145 -15 30 -45 81 -66 112 -21 31 -47 81 -56 112 -11 35 -24 56 -33 56 -17 0 -189 -52 -237 -71 -25 -10 -36 -10 -44 -2 -9 9 0 23 35 58 25 26 46 53 46 61 0 7 21 36 46 65 53 60 94 143 94 192 0 41 -23 119 -55 189 -60 129 -3 167 95 63 53 -56 107 -88 128 -76 10 5 31 43 47 83 15 40 43 107 60 148 39 90 60 155 75 235 6 33 31 132 55 220 25 88 54 212 65 275 12 63 33 148 46 189 14 42 40 152 59 246 20 93 49 213 65 265 16 52 41 158 55 235 15 77 42 190 60 250 39 130 50 182 65 290 7 44 27 127 46 184 33 102 66 244 80 350 10 77 48 118 117 126 29 3 248 11 487 17 461 11 896 23 1275 36 239 8 317 6 349 -10z"></path></g></g></svg>